<svg width="25" height="24" viewBox="0 0 25 24" fill="none" xmlns="http://www.w3.org/2000/svg">
<path opacity="0.3" fill-rule="evenodd" clip-rule="evenodd" d="M3.03467 4C3.03467 3.44772 3.48238 3 4.03467 3H11.1266V4.90805C11.1266 9.37711 7.50373 13 3.03467 13V4ZM21.2416 4C21.2416 3.44772 20.7938 3 20.2416 3H13.1496V4.90805C13.1496 9.37711 16.7725 13 21.2416 13V4Z" fill="#354052"/>
<path fill-rule="evenodd" clip-rule="evenodd" d="M4.03467 21C3.48238 21 3.03467 20.5523 3.03467 20V13C6.38647 13 9.10363 15.7172 9.10363 19.069V21H4.03467ZM20.2416 21C20.7938 21 21.2416 20.5523 21.2416 20V13C17.8898 13 15.1726 15.7172 15.1726 19.069V21H20.2416Z" fill="#354052"/>
</svg>
