<svg width="130" height="130" viewBox="0 0 130 130" fill="none" xmlns="http://www.w3.org/2000/svg">
<path d="M31.9767 60.18C30.9567 60.18 30.0517 59.95 29.2617 59.49C28.4717 59.02 27.8517 58.38 27.4017 57.57C26.9517 56.75 26.7267 55.81 26.7267 54.75C26.7267 53.69 26.9517 52.755 27.4017 51.945C27.8517 51.125 28.4667 50.485 29.2467 50.025C30.0367 49.555 30.9417 49.32 31.9617 49.32C32.6817 49.32 33.3517 49.45 33.9717 49.71C34.5917 49.96 35.1317 50.315 35.5917 50.775C36.0617 51.225 36.4217 51.745 36.6717 52.335L34.7667 53.04C34.5967 52.67 34.3717 52.35 34.0917 52.08C33.8117 51.8 33.4917 51.585 33.1317 51.435C32.7717 51.275 32.3817 51.195 31.9617 51.195C31.3517 51.195 30.8067 51.35 30.3267 51.66C29.8567 51.96 29.4867 52.375 29.2167 52.905C28.9567 53.435 28.8267 54.05 28.8267 54.75C28.8267 55.45 28.9617 56.07 29.2317 56.61C29.5017 57.14 29.8767 57.56 30.3567 57.87C30.8367 58.17 31.3867 58.32 32.0067 58.32C32.4367 58.32 32.8267 58.24 33.1767 58.08C33.5367 57.91 33.8517 57.68 34.1217 57.39C34.4017 57.1 34.6267 56.765 34.7967 56.385L36.7017 57.075C36.4517 57.685 36.0917 58.225 35.6217 58.695C35.1617 59.165 34.6217 59.53 34.0017 59.79C33.3817 60.05 32.7067 60.18 31.9767 60.18ZM43.0108 60.18C41.9508 60.18 41.0108 59.95 40.1908 59.49C39.3808 59.02 38.7458 58.38 38.2858 57.57C37.8258 56.75 37.5958 55.815 37.5958 54.765C37.5958 53.695 37.8258 52.755 38.2858 51.945C38.7458 51.125 39.3758 50.485 40.1758 50.025C40.9858 49.565 41.9158 49.335 42.9658 49.335C44.0258 49.335 44.9558 49.57 45.7558 50.04C46.5658 50.5 47.2008 51.14 47.6608 51.96C48.1208 52.77 48.3508 53.705 48.3508 54.765C48.3508 55.815 48.1208 56.75 47.6608 57.57C47.2108 58.38 46.5808 59.02 45.7708 59.49C44.9708 59.95 44.0508 60.18 43.0108 60.18ZM43.0108 58.305C43.6508 58.305 44.2108 58.155 44.6908 57.855C45.1808 57.545 45.5608 57.125 45.8308 56.595C46.1108 56.065 46.2508 55.455 46.2508 54.765C46.2508 54.065 46.1108 53.45 45.8308 52.92C45.5508 52.39 45.1658 51.975 44.6758 51.675C44.1858 51.365 43.6158 51.21 42.9658 51.21C42.3358 51.21 41.7708 51.365 41.2708 51.675C40.7808 51.975 40.3958 52.39 40.1158 52.92C39.8358 53.45 39.6958 54.065 39.6958 54.765C39.6958 55.455 39.8358 56.065 40.1158 56.595C40.3958 57.125 40.7858 57.545 41.2858 57.855C41.7858 58.155 42.3608 58.305 43.0108 58.305ZM55.3124 57.48L50.1074 49.905L51.0674 49.62L52.2524 49.5L56.3474 55.575L55.3124 57.48ZM50.0174 60V49.5H52.0724V60H50.0174ZM55.3124 57.48L54.2774 55.575L58.3724 49.5L59.5574 49.62L60.4874 49.875L55.3124 57.48ZM58.5524 60V49.5H60.5924V60H58.5524ZM64.6938 56.52V54.63H66.8988C67.3588 54.63 67.7338 54.48 68.0238 54.18C68.3238 53.88 68.4738 53.485 68.4738 52.995C68.4738 52.675 68.3988 52.395 68.2488 52.155C68.0988 51.905 67.8938 51.71 67.6338 51.57C67.3738 51.43 67.0738 51.365 66.7338 51.375H64.6938V49.5L66.7788 49.485C67.5188 49.475 68.1738 49.625 68.7438 49.935C69.3138 50.235 69.7588 50.65 70.0788 51.18C70.3988 51.7 70.5588 52.305 70.5588 52.995C70.5588 53.675 70.4038 54.28 70.0938 54.81C69.7838 55.34 69.3588 55.76 68.8188 56.07C68.2788 56.37 67.6538 56.52 66.9438 56.52H64.6938ZM62.8788 60V49.5H64.9338V60H62.8788ZM79.1919 60L75.1719 49.5H77.2269L81.3669 60H79.1919ZM70.8969 60L75.0369 49.5H77.0919L73.0719 60H70.8969ZM72.8469 57.69V55.875H79.4319V57.69H72.8469ZM89.8999 60L83.1049 50.625L84.7699 49.5L91.5349 58.83L89.8999 60ZM82.6249 60V49.5H84.7699L84.6799 51.315V60.015L82.6249 60ZM89.8999 60V49.5H91.9399V60H89.8999ZM98.9064 55.665L96.9714 55.17L100.346 49.5H102.686L98.9064 55.665ZM96.9114 60V54.96H98.9664V60H96.9114ZM96.9714 55.665L93.1914 49.5H95.5314L98.9064 55.17L96.9714 55.665ZM28.2009 84V65.1H31.8999V84H28.2009ZM30.5769 84V80.625H40.2159V84H30.5769ZM50.9737 84.324C49.0657 84.324 47.3737 83.91 45.8977 83.082C44.4397 82.236 43.2967 81.084 42.4687 79.626C41.6407 78.15 41.2267 76.467 41.2267 74.577C41.2267 72.651 41.6407 70.959 42.4687 69.501C43.2967 68.025 44.4307 66.873 45.8707 66.045C47.3287 65.217 49.0027 64.803 50.8927 64.803C52.8007 64.803 54.4747 65.226 55.9147 66.072C57.3727 66.9 58.5157 68.052 59.3437 69.528C60.1717 70.986 60.5857 72.669 60.5857 74.577C60.5857 76.467 60.1717 78.15 59.3437 79.626C58.5337 81.084 57.3997 82.236 55.9417 83.082C54.5017 83.91 52.8457 84.324 50.9737 84.324ZM50.9737 80.949C52.1257 80.949 53.1337 80.679 53.9977 80.139C54.8797 79.581 55.5637 78.825 56.0497 77.871C56.5537 76.917 56.8057 75.819 56.8057 74.577C56.8057 73.317 56.5537 72.21 56.0497 71.256C55.5457 70.302 54.8527 69.555 53.9707 69.015C53.0887 68.457 52.0627 68.178 50.8927 68.178C49.7587 68.178 48.7417 68.457 47.8417 69.015C46.9597 69.555 46.2667 70.302 45.7627 71.256C45.2587 72.21 45.0067 73.317 45.0067 74.577C45.0067 75.819 45.2587 76.917 45.7627 77.871C46.2667 78.825 46.9687 79.581 47.8687 80.139C48.7687 80.679 49.8037 80.949 50.9737 80.949ZM72.3607 84.324C70.4347 84.324 68.7247 83.91 67.2307 83.082C65.7547 82.236 64.5937 81.084 63.7477 79.626C62.9017 78.15 62.4787 76.458 62.4787 74.55C62.4787 72.642 62.9017 70.959 63.7477 69.501C64.5937 68.025 65.7547 66.873 67.2307 66.045C68.7247 65.199 70.4347 64.776 72.3607 64.776C73.5127 64.776 74.5747 64.947 75.5467 65.289C76.5187 65.631 77.3737 66.108 78.1117 66.72C78.8677 67.314 79.4977 67.998 80.0017 68.772L76.9777 70.662C76.6717 70.176 76.2667 69.744 75.7627 69.366C75.2767 68.988 74.7367 68.691 74.1427 68.475C73.5487 68.259 72.9547 68.151 72.3607 68.151C71.1727 68.151 70.1197 68.43 69.2017 68.988C68.2837 69.528 67.5637 70.275 67.0417 71.229C66.5197 72.183 66.2587 73.29 66.2587 74.55C66.2587 75.792 66.5107 76.899 67.0147 77.871C67.5367 78.843 68.2657 79.608 69.2017 80.166C70.1377 80.706 71.2177 80.976 72.4417 80.976C73.3957 80.976 74.2417 80.787 74.9797 80.409C75.7357 80.031 76.3297 79.5 76.7617 78.816C77.1937 78.132 77.4097 77.34 77.4097 76.44L80.9197 75.9C80.9197 77.682 80.5507 79.203 79.8127 80.463C79.0927 81.723 78.0847 82.686 76.7887 83.352C75.5107 84 74.0347 84.324 72.3607 84.324ZM72.9817 76.764V73.875H80.9197V76.17L78.9217 76.764H72.9817ZM92.2911 84.324C90.3831 84.324 88.6911 83.91 87.2151 83.082C85.7571 82.236 84.6141 81.084 83.7861 79.626C82.9581 78.15 82.5441 76.467 82.5441 74.577C82.5441 72.651 82.9581 70.959 83.7861 69.501C84.6141 68.025 85.7481 66.873 87.1881 66.045C88.6461 65.217 90.3201 64.803 92.2101 64.803C94.1181 64.803 95.7921 65.226 97.2321 66.072C98.6901 66.9 99.8331 68.052 100.661 69.528C101.489 70.986 101.903 72.669 101.903 74.577C101.903 76.467 101.489 78.15 100.661 79.626C99.8511 81.084 98.7171 82.236 97.2591 83.082C95.8191 83.91 94.1631 84.324 92.2911 84.324ZM92.2911 80.949C93.4431 80.949 94.4511 80.679 95.3151 80.139C96.1971 79.581 96.8811 78.825 97.3671 77.871C97.8711 76.917 98.1231 75.819 98.1231 74.577C98.1231 73.317 97.8711 72.21 97.3671 71.256C96.8631 70.302 96.1701 69.555 95.2881 69.015C94.4061 68.457 93.3801 68.178 92.2101 68.178C91.0761 68.178 90.0591 68.457 89.1591 69.015C88.2771 69.555 87.5841 70.302 87.0801 71.256C86.5761 72.21 86.3241 73.317 86.3241 74.577C86.3241 75.819 86.5761 76.917 87.0801 77.871C87.5841 78.825 88.2861 79.581 89.1861 80.139C90.0861 80.679 91.1211 80.949 92.2911 80.949Z" fill="#E3E5E8"/>
</svg>
