<svg xmlns="http://www.w3.org/2000/svg" fill="none" viewBox="162.75 0 94.51 16">
<path d="M172.477 3.15163C172.477 1.41103 171.065 0 169.325 0C167.584 0 166.173 1.41103 166.173 3.15163C166.173 4.89223 167.584 6.30327 169.325 6.30327C171.065 6.30327 172.477 4.89223 172.477 3.15163Z" fill="#1A1A1A"/>
<path d="M169.984 16L179.898 7.62826L177.661 4.97952L169.661 11.7356L164.558 8.60795L162.746 11.5637L169.984 16Z" fill="#1A1A1A"/>
<path d="M245.621 1.85205V13.9211H247.142V6.58729L251.348 12.4489H251.38L255.7 6.34129V13.9211H257.253V1.85205H257.221L251.393 10.023L245.637 1.85205H245.621Z" fill="#1A1A1A"/>
<path d="M234.592 2.22415V13.9211H233.038V8.79258H226.907V13.9211H225.337V2.22415H226.907V7.30417H233.038V2.22415H234.592Z" fill="#1A1A1A"/>
<path fill-rule="evenodd" clip-rule="evenodd" d="M239.565 2.22415C240.158 2.22415 240.703 2.30505 241.199 2.46683C241.706 2.61783 242.143 2.84972 242.51 3.1625C242.887 3.4645 243.178 3.84199 243.383 4.29499C243.599 4.7372 243.707 5.25491 243.707 5.84811C243.707 6.31189 243.637 6.76489 243.496 7.2071C243.367 7.64931 243.146 8.05377 242.833 8.42048C242.558 8.73391 242.207 8.99715 241.781 9.21021L244.71 13.9211H242.898L240.146 9.60707C240.021 9.61414 239.892 9.61768 239.759 9.61768H238.028V13.9211H236.459V2.22415H239.565ZM239.727 8.11309C240.191 8.11309 240.573 8.04298 240.875 7.90277C241.188 7.76256 241.431 7.58459 241.604 7.36888C241.776 7.14238 241.9 6.89971 241.976 6.64085C242.051 6.382 242.089 6.13932 242.089 5.91283C242.089 5.67554 242.046 5.43287 241.959 5.1848C241.884 4.92594 241.755 4.68866 241.571 4.47295C241.399 4.25724 241.167 4.07928 240.875 3.93906C240.595 3.79885 240.25 3.72874 239.84 3.72874H238.028V8.11309H239.727Z" fill="#1A1A1A"/>
<path d="M186.565 12.4492C187.676 13.5817 189.083 14.1479 190.787 14.1479C191.823 14.1479 192.772 13.9106 193.635 13.4361C194.498 12.9507 195.172 12.2982 195.657 11.4785L193.732 10.3622C193.462 10.8583 193.063 11.252 192.535 11.5432C192.017 11.8236 191.435 11.9638 190.787 11.9638C189.687 11.9638 188.797 11.6187 188.118 10.9284C187.449 10.2381 187.115 9.34832 187.115 8.25897C187.115 7.15884 187.449 6.26364 188.118 5.57336C188.797 4.88308 189.687 4.53794 190.787 4.53794C191.435 4.53794 192.017 4.68355 192.535 4.97476C193.052 5.25519 193.451 5.64886 193.732 6.15578L195.657 5.03947C195.172 4.21977 194.492 3.57263 193.619 3.09807C192.756 2.61272 191.812 2.37004 190.787 2.37004C189.083 2.37004 187.676 2.93628 186.565 4.06877C185.454 5.19047 184.898 6.58721 184.898 8.25897C184.898 9.91995 185.454 11.3167 186.565 12.4492Z" fill="#1A1A1A"/>
<path d="M199.753 6.05871C199.311 6.31757 198.992 6.70585 198.798 7.22356V5.83221H196.711V13.9214H198.798V10.0548C198.798 9.27821 199.046 8.72275 199.542 8.3884C200.049 8.05405 200.621 7.92462 201.257 8.00012V5.67043C200.707 5.67043 200.206 5.79986 199.753 6.05871Z" fill="#1A1A1A"/>
<path fill-rule="evenodd" clip-rule="evenodd" d="M203.594 10.7343C203.875 11.7481 204.635 12.255 205.876 12.255C206.674 12.255 207.278 11.9854 207.688 11.4461L209.37 12.4168C208.572 13.5709 207.396 14.1479 205.843 14.1479C204.506 14.1479 203.433 13.7434 202.624 12.9345C201.815 12.1256 201.41 11.1064 201.41 9.87681C201.41 8.65804 201.809 7.64419 202.608 6.83527C203.406 6.01557 204.43 5.60572 205.682 5.60572C206.868 5.60572 207.844 6.01557 208.61 6.83527C209.386 7.65498 209.775 8.66883 209.775 9.87681C209.775 10.1465 209.748 10.4323 209.694 10.7343H203.594ZM203.562 9.11643H207.688C207.569 8.56636 207.321 8.15651 206.943 7.88687C206.577 7.61723 206.156 7.48241 205.682 7.48241C205.121 7.48241 204.657 7.62802 204.29 7.91923C203.923 8.19965 203.681 8.59872 203.562 9.11643Z" fill="#1A1A1A"/>
<path d="M221.894 5.83221H219.677L218.302 10.8152L216.83 5.83221H214.856L213.384 10.799L212.009 5.83221H209.792L212.365 13.9214H214.355L215.843 9.01936L217.331 13.9214H219.321L221.894 5.83221Z" fill="#1A1A1A"/>
</svg>