<svg width="180" height="180" viewBox="0 0 180 180" fill="none" xmlns="http://www.w3.org/2000/svg">
<g id="Empty Illustration">
<g clip-path="url(#clip0_131_26951)">
<g id="Mask Group 1">
<path id="Ellipse 652" d="M90 180.626C139.188 180.626 179.063 140.751 179.063 91.563C179.063 42.3749 139.188 2.5 90 2.5C40.8119 2.5 0.937012 42.3749 0.937012 91.563C0.937012 140.751 40.8119 180.626 90 180.626Z" fill="#E3E5E8"/>
<g id="Group">
<path id="Rectangle 5615" d="M143.75 63.748H36.2495C32.7977 63.748 29.9995 66.011 29.9995 68.8024V174.944C29.9995 177.736 32.7977 179.999 36.2495 179.999H143.75C147.202 179.999 150 177.736 150 174.944V68.8024C150 66.011 147.202 63.748 143.75 63.748Z" fill="white"/>
</g>
<g id="Group 26776">
<path id="Rectangle 5617" d="M82.1877 82.5H49.6875C47.6164 82.5 45.9375 84.1789 45.9375 86.25C45.9375 88.3211 47.6164 90 49.6875 90H82.1877C84.2588 90 85.9377 88.3211 85.9377 86.25C85.9377 84.1789 84.2588 82.5 82.1877 82.5Z" fill="#BBBFC4"/>
<path id="Rectangle 5618" d="M104.688 98.75H49.6875C47.6164 98.75 45.9375 100.429 45.9375 102.5C45.9375 104.571 47.6164 106.25 49.6875 106.25H104.688C106.759 106.25 108.438 104.571 108.438 102.5C108.438 100.429 106.759 98.75 104.688 98.75Z" fill="#E3E5E8"/>
</g>
<g id="Group 26777">
<path id="Rectangle 5617_2" d="M82.1877 116.25H49.6875C47.6164 116.25 45.9375 117.929 45.9375 120C45.9375 122.071 47.6164 123.75 49.6875 123.75H82.1877C84.2588 123.75 85.9377 122.071 85.9377 120C85.9377 117.929 84.2588 116.25 82.1877 116.25Z" fill="#BBBFC4"/>
<path id="Rectangle 5618_2" d="M104.688 132.5H49.6875C47.6164 132.5 45.9375 134.179 45.9375 136.25C45.9375 138.321 47.6164 140 49.6875 140H104.688C106.759 140 108.438 138.321 108.438 136.25C108.438 134.179 106.759 132.5 104.688 132.5Z" fill="#E3E5E8"/>
</g>
</g>
<g id="Group 26779">
<g id="Group_2">
<path id="Rectangle 5616" d="M143.75 0H36.2495C32.7977 0 29.9995 2.79824 29.9995 6.25004V43.7502C29.9995 47.202 32.7977 50.0003 36.2495 50.0003H143.75C147.202 50.0003 150 47.202 150 43.7502V6.25004C150 2.79824 147.202 0 143.75 0Z" fill="#BBBFC4"/>
</g>
<g id="Group 26775">
<path id="Rectangle 5617_3" d="M82.1872 13.75H49.687C47.616 13.75 45.937 15.4289 45.937 17.5C45.937 19.5711 47.616 21.25 49.687 21.25H82.1872C84.2583 21.25 85.9372 19.5711 85.9372 17.5C85.9372 15.4289 84.2583 13.75 82.1872 13.75Z" fill="#E3E5E8"/>
<path id="Rectangle 5618_3" d="M104.687 30H49.687C47.616 30 45.937 31.6789 45.937 33.75C45.937 35.8211 47.616 37.5 49.687 37.5H104.687C106.758 37.5 108.437 35.8211 108.437 33.75C108.437 31.6789 106.758 30 104.687 30Z" fill="white"/>
</g>
</g>
</g>
</g>
<defs>
<clipPath id="clip0_131_26951">
<path d="M0.937012 0H179.063V90.937C179.063 140.125 139.188 180 90 180C40.8119 180 0.937012 140.125 0.937012 90.937V0Z" fill="white"/>
</clipPath>
</defs>
</svg>
