<svg width="44" height="45" viewBox="0 0 44 45" fill="none" xmlns="http://www.w3.org/2000/svg">
<ellipse cx="22" cy="22.8243" rx="22" ry="22" fill="#888888"/>
<path d="M29.7789 15.4921H14.2502C13.564 15.4928 12.9062 15.7657 12.421 16.2509C11.9358 16.7361 11.6628 17.394 11.6621 18.0802V29.1721C11.6628 29.8583 11.9358 30.5162 12.421 31.0014C12.9062 31.4866 13.564 31.7595 14.2502 31.7602H29.7789C30.4651 31.7595 31.123 31.4866 31.6082 31.0014C32.0934 30.5162 32.3663 29.8583 32.3671 29.1721V18.0802C32.3663 17.394 32.0934 16.7361 31.6082 16.2509C31.123 15.7657 30.4651 15.4928 29.7789 15.4921ZM29.1236 19.7731L22.4684 24.9493C22.3387 25.0502 22.179 25.105 22.0146 25.105C21.8502 25.105 21.6905 25.0502 21.5607 24.9493L14.9056 19.7731C14.8274 19.714 14.7617 19.64 14.7124 19.5554C14.663 19.4707 14.631 19.3771 14.6181 19.28C14.6053 19.1829 14.6119 19.0841 14.6375 18.9896C14.6631 18.895 14.7073 18.8065 14.7674 18.7291C14.8276 18.6517 14.9025 18.5871 14.9878 18.539C15.0732 18.4908 15.1672 18.4601 15.2645 18.4486C15.3618 18.4371 15.4605 18.4451 15.5547 18.4721C15.6489 18.499 15.7368 18.5444 15.8133 18.6057L22.0146 23.4288L28.2159 18.6057C28.371 18.4886 28.5659 18.4372 28.7585 18.4627C28.9512 18.4882 29.126 18.5885 29.2453 18.7419C29.3646 18.8953 29.4187 19.0895 29.3959 19.2824C29.3731 19.4754 29.2753 19.6517 29.1236 19.7731Z" fill="white"/>
</svg>
