<svg width="44" height="45" viewBox="0 0 44 45" fill="none" xmlns="http://www.w3.org/2000/svg">
<ellipse cx="22" cy="22.8243" rx="22" ry="22" fill="#0D5BBA"/>
<path d="M16.6309 31H12.6348V18.1523H16.6309V31ZM14.6113 16.4336C13.3652 16.4336 12.334 15.3594 12.334 14.0703C12.334 13.2539 12.7637 12.4805 13.4512 12.0938C14.1816 11.6641 15.084 11.6641 15.7715 12.0938C16.502 12.4805 16.9316 13.2539 16.9316 14.0703C16.9316 15.3594 15.9004 16.4336 14.6113 16.4336ZM31.541 31H27.5879V24.7695C27.5879 23.2656 27.5449 21.375 25.4824 21.375C23.4199 21.375 23.1191 22.9648 23.1191 24.6406V31H19.123V18.1523H22.9473V19.9141H22.9902C23.5488 18.9258 24.8379 17.8516 26.7715 17.8516C30.8105 17.8516 31.584 20.5156 31.584 23.9531V31H31.541Z" fill="white"/>
</svg>
