<svg width="44" height="45" viewBox="0 0 44 45" fill="none" xmlns="http://www.w3.org/2000/svg">
<ellipse cx="22" cy="22.8243" rx="22" ry="22" fill="#FF4500"/>
<path d="M29.2402 20.5156C31.6035 20.5156 32.4199 23.6953 30.2715 24.8125C30.3574 25.1562 30.4004 25.5 30.4004 25.8867C30.4004 29.4961 26.3184 32.375 21.334 32.375C16.3496 32.375 12.3105 29.4961 12.3105 25.8867C12.3105 25.5 12.3105 25.1562 12.3965 24.8125C10.2051 23.7383 11.0215 20.5156 13.3848 20.5156C14.0293 20.5156 14.6309 20.7734 15.0605 21.2031C16.5645 20.1719 18.627 19.4844 20.9043 19.3555L22.1934 13.4688C22.2793 13.2539 22.4512 13.082 22.666 13.168L26.877 14.0703C27.1348 13.5547 27.7363 13.125 28.3809 13.125C29.3262 13.125 30.0996 13.8984 30.0996 14.8438C30.0996 15.7891 29.3262 16.5625 28.3809 16.5625C27.4355 16.5625 26.7051 15.7891 26.7051 14.8867L22.9238 14.0273L21.7207 19.3984C23.998 19.4414 26.0605 20.1289 27.6074 21.2031C28.0371 20.7734 28.5957 20.5156 29.2402 20.5156ZM15.877 25.0273C15.877 25.9727 16.6504 26.7461 17.5957 26.7461C18.498 26.7461 19.2715 25.9727 19.2715 25.0273C19.2715 24.082 18.498 23.3516 17.5957 23.3516C16.6504 23.3516 15.877 24.082 15.877 25.0273ZM25.0723 29.0664C25.2441 28.8945 25.2441 28.6367 25.0723 28.4648C24.9434 28.3359 24.6426 28.3359 24.5137 28.4648C23.2676 29.7109 19.3145 29.7109 18.1113 28.4648C17.9395 28.3359 17.6816 28.3359 17.5527 28.4648C17.3809 28.6367 17.3809 28.8945 17.5527 29.0664C19.0996 30.6133 23.5254 30.6133 25.0723 29.0664ZM25.0293 26.7461C25.9746 26.7461 26.748 25.9727 26.748 25.0273C26.748 24.082 25.9746 23.3516 25.0293 23.3516C24.127 23.3516 23.3535 24.082 23.3535 25.0273C23.3535 25.9727 24.127 26.7461 25.0293 26.7461Z" fill="white"/>
</svg>
