<svg width="115" height="22" viewBox="0 0 115 22" fill="none" xmlns="http://www.w3.org/2000/svg">
<path d="M96.8572 2.39755V21.1421L99.2191 21.1421V9.75189L105.752 18.8556H105.802L112.511 9.36982V21.1421H114.923V2.39755H114.873L105.822 15.0879L96.8823 2.39755H96.8572Z" fill="white"/>
<path d="M79.7273 2.97547V21.1421H77.3151V13.1769L67.7921 13.1769V21.1421H65.3548V2.97547L67.7921 2.97547V10.8653L77.3151 10.8653V2.97547L79.7273 2.97547Z" fill="white"/>
<path fill-rule="evenodd" clip-rule="evenodd" d="M87.4517 2.97547C88.373 2.97547 89.2189 3.1011 89.9895 3.35237C90.7768 3.58689 91.4552 3.94704 92.0248 4.43282C92.611 4.90185 93.0633 5.48815 93.3816 6.19169C93.7166 6.87849 93.8841 7.68255 93.8841 8.60387C93.8841 9.32417 93.7752 10.0277 93.5575 10.7145C93.3565 11.4013 93.0131 12.0295 92.5273 12.599C92.0995 13.0858 91.5548 13.4947 90.8932 13.8256L95.442 21.1421H92.6278L88.3539 14.4419C88.1597 14.4529 87.9595 14.4584 87.7532 14.4584H85.0646V21.1421H82.6273V2.97547L87.4517 2.97547ZM87.7029 12.1216C88.4232 12.1216 89.0179 12.0127 89.4869 11.795C89.9727 11.5772 90.3496 11.3008 90.6177 10.9658C90.8857 10.614 91.0783 10.2371 91.1956 9.83508C91.3128 9.43305 91.3714 9.05615 91.3714 8.70437C91.3714 8.33585 91.3045 7.95894 91.1704 7.57367C91.0532 7.17164 90.8522 6.80311 90.5674 6.46809C90.2994 6.13307 89.9392 5.85667 89.4869 5.63891C89.0514 5.42114 88.5154 5.31226 87.8788 5.31226H85.0646V12.1216H87.7029Z" fill="white"/>
<path d="M25.6189 8.93095C24.9321 9.33298 24.438 9.93602 24.1364 10.7401V8.57917H20.8951L20.8951 21.1426H24.1364V15.1373C24.1364 13.9312 24.5217 13.0685 25.2923 12.5492C26.0796 12.0299 26.9674 11.8289 27.9557 11.9462V8.3279C27.1014 8.3279 26.3225 8.52892 25.6189 8.93095Z" fill="white"/>
<path fill-rule="evenodd" clip-rule="evenodd" d="M31.5856 16.1926C32.0211 17.7672 33.2021 18.5545 35.1284 18.5545C36.368 18.5545 37.3061 18.1357 37.9426 17.2982L40.5558 18.8058C39.3162 20.5981 37.4904 21.4943 35.0782 21.4943C33.001 21.4943 31.3343 20.8662 30.078 19.6098C28.8216 18.3535 28.1935 16.7705 28.1935 14.8609C28.1935 12.968 28.8132 11.3934 30.0528 10.137C31.2924 8.86394 32.8838 8.2274 34.8269 8.2274C36.6696 8.2274 38.1855 8.86394 39.3749 10.137C40.581 11.4101 41.184 12.9847 41.184 14.8609C41.184 15.2796 41.1421 15.7236 41.0584 16.1926L31.5856 16.1926ZM31.5353 13.6799L37.9426 13.6799C37.7584 12.8256 37.3731 12.1891 36.7868 11.7703C36.2173 11.3515 35.564 11.1421 34.8269 11.1421C33.9559 11.1421 33.2356 11.3682 32.666 11.8205C32.0965 12.2561 31.7196 12.8758 31.5353 13.6799Z" fill="white"/>
<path d="M60.0063 8.57917L56.564 8.57917L54.4282 16.3182L52.1417 8.57917L49.0762 8.57917L46.7897 16.2931L44.6539 8.57917H41.2115L45.2067 21.1426H48.2973L50.6089 13.5291L52.9206 21.1426L56.0112 21.1426L60.0063 8.57917Z" fill="white"/>
<path d="M17.7672 17.3578C16.6313 19.2424 15.0307 20.559 13.017 21.3077C11.4939 21.8757 9.91908 22.108 8.31847 21.9531C6.20154 21.7466 4.31695 20.8688 2.74216 19.3457C1.3739 17.9774 0.521966 16.2994 0.186355 14.3631C-0.226705 12.0397 0.0314579 9.79366 1.11574 7.72837C2.04512 5.92123 3.41338 4.63042 5.1947 3.77848C6.43388 3.18471 7.7247 2.90073 9.06714 2.87491C9.24785 2.87491 9.58346 2.8491 9.6351 2.66838C9.97071 1.76482 10.2031 0.91288 10.7452 0.112576C10.8226 0.00931139 10.9259 -0.0165048 11.0292 0.00931139L13.4301 0.887063C13.585 0.938696 13.6366 1.14523 13.5592 1.27431C13.1461 1.91971 11.339 3.15889 12.1135 3.23634C12.6556 3.28797 12.9396 3.39124 13.1977 3.46869C14.4885 3.88175 15.6245 4.52715 16.5797 5.53399C17.3541 6.38592 17.8447 7.36694 17.8447 8.55449C17.8447 10.3874 16.7346 11.7299 15.0307 12.0655C12.3716 12.5818 10.0998 11.0845 9.19622 8.32214C8.96387 7.57347 8.80898 6.79898 8.78316 6.02449C8.78316 5.94705 8.75735 5.89541 8.75735 5.81796C8.18939 5.84378 7.67306 5.94705 7.15674 6.15357C5.29797 6.85061 4.05879 8.21887 3.49083 10.1809C2.87124 12.272 3.07777 14.3115 4.18787 16.1961C5.06562 17.6934 6.33062 18.6744 7.98286 18.9584C10.4096 19.3715 12.604 18.7777 14.3595 16.8673M11.7262 6.23102C11.4164 6.36011 11.9327 7.88326 12.4491 8.5803C12.7589 9.01918 13.1977 9.27734 13.7141 9.32897C14.2562 9.38061 14.6434 9.09663 14.7467 8.5803C14.8242 8.16724 14.6693 7.83163 14.4111 7.52184C13.9464 6.97969 13.3268 6.6699 12.7072 6.38592C12.733 6.41174 11.9586 6.12776 11.7262 6.23102Z" fill="white"/>
</svg>
